<svg width="25" height="24" viewBox="0 0 25 24" fill="none" xmlns="http://www.w3.org/2000/svg">
<path fill-rule="evenodd" clip-rule="evenodd" d="M0 0H24.1143V2.93541e-05L21.7038 2.92492e-05L19.2925 2.93541e-05V2.40003H21.7038L21.7039 2.40003L24.1143 2.40003V2.40009H21.7038V4.80009L24.1143 4.80009V19.1999H21.7038V21.5999H24.1143V21.6H21.7039H21.7038H19.2925V24H21.7038L21.7039 24H24.1143V24H0V0ZM0.000343589 2.40013H2.41177V4.80013H0.000343589V2.40013ZM4.82308 2.92969e-05L2.41177 2.90298e-05L0.000343855 2.90298e-05V2.40003L2.41165 2.40003L2.41177 2.40003L4.82308 2.40003V2.92969e-05ZM2.41177 21.5999H2.41165H0.00034385L0.000343955 23.9999H2.41165H2.41177H4.82308V21.5999L2.41177 21.5999ZM0.000343639 21.5998L0.000343534 19.1998H2.41177V21.5998H0.000343639Z" fill="#66BE47"/>
<path d="M16 8V8.94118H15V9.88235H14V10.8235H13V11.7647H12V12.7059H11V13.6471H10.5V14.1176H9.5V13.6471H9V12.7059H8V12.2353H7V13.6471H8V14.5882H9V15.5294H9.5V16H10.5V15.5294H11V14.5882H12V13.6471H13V12.7059H14V11.7647H15V10.8235H16V9.88235H17V8H16Z" fill="white"/>
</svg>
