<svg width="61" height="60" viewBox="0 0 61 60" fill="none" xmlns="http://www.w3.org/2000/svg">
<mask id="path-1-inside-1_54_13416" fill="white">
<path fill-rule="evenodd" clip-rule="evenodd" d="M0 0H60.2858V60H0V60H6.02847V54H0V53.9997H6.02847L6.02847 47.9997H0V0ZM60.2853 47.9997V53.9997H54.2567V47.9997H60.2853ZM48.2286 54V60H54.2567H54.2571H60.2853V54H54.2571L54.2567 54H48.2286ZM48.2286 2.29597e-05V6.00001L54.2567 6.00002L54.2571 6.00002L60.2852 6.00002V2.39134e-05L54.2571 2.3222e-05L48.2286 2.29597e-05ZM60.2852 6.00029V12.0003H54.2567V6.00029H60.2852ZM0.000192115 6.00029H6.02876V12.0003H0.000192115L0.000192115 6.00029ZM12.0572 2.21014e-05L6.02861 2.21014e-05L0.000191588 2.26259e-05L0.000191588 6.00001L6.02861 6.00001L6.02876 6.00001L12.0572 6.00001V2.21014e-05ZM6.0292 54V60H12.0578V54H6.0292Z"/>
</mask>
<path fill-rule="evenodd" clip-rule="evenodd" d="M0 0H60.2858V60H0V60H6.02847V54H0V53.9997H6.02847L6.02847 47.9997H0V0ZM60.2853 47.9997V53.9997H54.2567V47.9997H60.2853ZM48.2286 54V60H54.2567H54.2571H60.2853V54H54.2571L54.2567 54H48.2286ZM48.2286 2.29597e-05V6.00001L54.2567 6.00002L54.2571 6.00002L60.2852 6.00002V2.39134e-05L54.2571 2.3222e-05L48.2286 2.29597e-05ZM60.2852 6.00029V12.0003H54.2567V6.00029H60.2852ZM0.000192115 6.00029H6.02876V12.0003H0.000192115L0.000192115 6.00029ZM12.0572 2.21014e-05L6.02861 2.21014e-05L0.000191588 2.26259e-05L0.000191588 6.00001L6.02861 6.00001L6.02876 6.00001L12.0572 6.00001V2.21014e-05ZM6.0292 54V60H12.0578V54H6.0292Z" fill="#447EF7"/>
<path d="M60.2858 0H61.2858V-1H60.2858V0ZM0 0V-1H-1V0H0ZM60.2858 60V61H61.2858V60H60.2858ZM0 60H-1V61H0V60ZM0 60V59H-1V60H0ZM6.02847 60V61H7.02847V60H6.02847ZM6.02847 54H7.02847V53H6.02847V54ZM0 54H-1V55H0V54ZM0 53.9997V52.9997H-1V53.9997H0ZM6.02847 53.9997V54.9997H7.02847V53.9997H6.02847ZM6.02847 47.9997H7.02847V46.9997H6.02847V47.9997ZM0 47.9997H-1V48.9997H0V47.9997ZM60.2853 53.9997V54.9997H61.2853V53.9997H60.2853ZM60.2853 47.9997H61.2853V46.9997H60.2853V47.9997ZM54.2567 53.9997H53.2567V54.9997H54.2567V53.9997ZM54.2567 47.9997V46.9997H53.2567V47.9997H54.2567ZM48.2286 60H47.2286V61H48.2286V60ZM48.2286 54V53H47.2286V54H48.2286ZM60.2853 60V61H61.2853V60H60.2853ZM60.2853 54H61.2853V53H60.2853V54ZM54.2571 54L54.2486 55H54.2571V54ZM54.2567 54L54.2652 53H54.2567V54ZM48.2286 6.00001H47.2286V7.00001H48.2286V6.00001ZM48.2286 2.29597e-05V-0.999977L47.2286 -0.999977V2.29597e-05H48.2286ZM54.2567 6.00002V7.00002L54.2578 7.00002L54.2567 6.00002ZM54.2571 6.00002V5.00001L54.256 5.00002L54.2571 6.00002ZM60.2852 6.00002V7.00002H61.2852V6.00002H60.2852ZM60.2852 2.39134e-05H61.2852V-0.999976L60.2852 -0.999976V2.39134e-05ZM54.2571 2.3222e-05V-0.999977V2.3222e-05ZM60.2852 12.0003V13.0003H61.2852V12.0003H60.2852ZM60.2852 6.00029H61.2852V5.00029H60.2852V6.00029ZM54.2567 12.0003H53.2567V13.0003H54.2567V12.0003ZM54.2567 6.00029V5.00029H53.2567V6.00029H54.2567ZM6.02876 6.00029H7.02876V5.00029H6.02876V6.00029ZM0.000192115 6.00029V5.00029H-0.999808V6.00029H0.000192115ZM6.02876 12.0003V13.0003H7.02876V12.0003H6.02876ZM0.000192115 12.0003H-0.999808V13.0003H0.000192115V12.0003ZM6.02861 2.21014e-05V-0.999978V2.21014e-05ZM12.0572 2.21014e-05H13.0572V-0.999978H12.0572V2.21014e-05ZM0.000191588 2.26259e-05L0.000191501 -0.999977L-0.999808 -0.999977V2.26259e-05L0.000191588 2.26259e-05ZM0.000191588 6.00001H-0.999808V7.00001H0.000191667L0.000191588 6.00001ZM6.02861 6.00001L6.03173 5.00001H6.02861V6.00001ZM6.02876 6.00001L6.02564 7.00001H6.02876V6.00001ZM12.0572 6.00001V7.00001H13.0572V6.00001H12.0572ZM6.0292 60H5.0292V61H6.0292V60ZM6.0292 54V53H5.0292V54H6.0292ZM12.0578 60V61H13.0578V60H12.0578ZM12.0578 54H13.0578V53H12.0578V54ZM60.2858 -1H0V1H60.2858V-1ZM61.2858 60V0H59.2858V60H61.2858ZM0 61H60.2858V59H0V61ZM-1 60V60H1V60H-1ZM6.02847 59H0V61H6.02847V59ZM5.02847 54V60H7.02847V54H5.02847ZM0 55H6.02847V53H0V55ZM-1 53.9997V54H1V53.9997H-1ZM6.02847 52.9997H0V54.9997H6.02847V52.9997ZM5.02847 47.9997L5.02847 53.9997H7.02847L7.02847 47.9997H5.02847ZM0 48.9997H6.02847V46.9997H0V48.9997ZM-1 0V47.9997H1V0H-1ZM61.2853 53.9997V47.9997H59.2853V53.9997H61.2853ZM54.2567 54.9997H60.2853V52.9997H54.2567V54.9997ZM53.2567 47.9997V53.9997H55.2567V47.9997H53.2567ZM60.2853 46.9997H54.2567V48.9997H60.2853V46.9997ZM49.2286 60V54H47.2286V60H49.2286ZM54.2567 59H48.2286V61H54.2567V59ZM54.2571 59H54.2567V61H54.2571V59ZM60.2853 59H54.2571V61H60.2853V59ZM59.2853 54V60H61.2853V54H59.2853ZM54.2571 55H60.2853V53H54.2571V55ZM54.2481 54.9999L54.2486 54.9999L54.2657 53L54.2652 53L54.2481 54.9999ZM48.2286 55H54.2567V53H48.2286V55ZM49.2286 6.00001V2.29597e-05H47.2286V6.00001H49.2286ZM54.2567 5.00002L48.2286 5.00001V7.00001L54.2567 7.00002V5.00002ZM54.256 5.00002L54.2556 5.00002L54.2578 7.00002L54.2582 7.00001L54.256 5.00002ZM60.2852 5.00002L54.2571 5.00002V7.00002L60.2852 7.00002V5.00002ZM59.2852 2.39134e-05V6.00002H61.2852V2.39134e-05H59.2852ZM54.2571 1.00002L60.2852 1.00002V-0.999976L54.2571 -0.999977V1.00002ZM48.2286 1.00002L54.2571 1.00002V-0.999977L48.2286 -0.999977V1.00002ZM61.2852 12.0003V6.00029H59.2852V12.0003H61.2852ZM54.2567 13.0003H60.2852V11.0003H54.2567V13.0003ZM53.2567 6.00029V12.0003H55.2567V6.00029H53.2567ZM60.2852 5.00029H54.2567V7.00029H60.2852V5.00029ZM6.02876 5.00029H0.000192115V7.00029H6.02876V5.00029ZM7.02876 12.0003V6.00029H5.02876V12.0003H7.02876ZM0.000192115 13.0003H6.02876V11.0003H0.000192115V13.0003ZM-0.999808 6.00029V12.0003H1.00019V6.00029H-0.999808ZM6.02861 1.00002H12.0572V-0.999978H6.02861V1.00002ZM0.000191675 1.00002L6.02861 1.00002V-0.999978L0.000191501 -0.999977L0.000191675 1.00002ZM1.00019 6.00001V2.26259e-05L-0.999808 2.26259e-05V6.00001H1.00019ZM6.02861 5.00001L0.000191509 5.00001L0.000191667 7.00001L6.02861 7.00001V5.00001ZM6.03189 5.00002L6.03173 5.00002L6.02548 7.00001L6.02564 7.00001L6.03189 5.00002ZM12.0572 5.00001L6.02876 5.00001V7.00001L12.0572 7.00001V5.00001ZM11.0572 2.21014e-05V6.00001H13.0572V2.21014e-05H11.0572ZM7.0292 60V54H5.0292V60H7.0292ZM12.0578 59H6.0292V61H12.0578V59ZM11.0578 54V60H13.0578V54H11.0578ZM6.0292 55H12.0578V53H6.0292V55Z" fill="white" fill-opacity="0.15" mask="url(#path-1-inside-1_54_13416)"/>
<path d="M19.2 18V19.2H18V38.4H19.2V39.6H22.8V37.2H21.6V36H20.4V21.6H21.6V20.4H24V18H19.2Z" fill="white"/>
<path d="M40.8002 26.4V25.2H39.6002V24H38.4002V22.8H37.2002V21.6H36.0002V20.4H26.4002V21.6H25.2002V40.8H26.4002V42H40.8002V40.8H42.0002V26.4H40.8002ZM39.6002 38.4H38.4002V39.6H28.8002V38.4H27.6002V24H28.8002V22.8H32.4002V30H39.6002V38.4ZM37.2002 26.4V27.6H34.8002V25.2H36.0002V26.4H37.2002Z" fill="white"/>
</svg>
