<svg width="29" height="28" viewBox="0 0 29 28" fill="none" xmlns="http://www.w3.org/2000/svg">
<path fill-rule="evenodd" clip-rule="evenodd" d="M0 0H28.1143V8.3202e-05L25.303 8.30796e-05V8.33241e-05L22.4931 8.32019e-05V2.79818L25.303 2.79818L25.3045 2.79818H28.1143V2.79822L25.303 2.79822V5.59632H28.1143V22.3848H25.303V25.1829H28.1143V25.183H25.3045H25.303H22.4931L22.4931 27.981H0V27.981H2.80906H2.81055H5.62049V25.1829H2.81055H2.80906H0V25.1828L2.81055 25.1828L2.81055 22.3847H0V5.5964H2.81055V2.7983H0V2.79819L2.80906 2.79819L2.81055 2.79819L5.62049 2.79819V9.37047e-05H2.80906V9.39492e-05H0V0Z" fill="#66BE47"/>
</svg>
