<svg width="20" height="20" viewBox="0 0 20 20" fill="none" xmlns="http://www.w3.org/2000/svg">
<mask id="path-1-inside-1_87_15714" fill="white">
<path fill-rule="evenodd" clip-rule="evenodd" d="M0.333252 0.666672H19.0761L19.0761 0.666726L17.2018 0.666726L15.3285 0.666726V2.53213L17.2018 2.53213L17.2028 2.53213L19.0761 2.53213V2.53214L17.2018 2.53214V4.39754H19.0761V15.5899H17.2018V17.4553H19.0761V17.4553H17.2028H17.2018H15.3285V19.3207H0.333252V19.3207H2.2057H2.20677H4.07998V17.4553H2.20677H2.2057H0.333252V17.4552L2.20677 17.4552L2.20677 15.5898H0.333252V4.39761H2.20677V2.53221H0.333252V2.53214L2.2057 2.53214L2.20677 2.53214L4.07998 2.53214V0.666742L2.20677 0.666742L0.333252 0.666742V0.666672Z"/>
</mask>
<path fill-rule="evenodd" clip-rule="evenodd" d="M0.333252 0.666672H19.0761L19.0761 0.666726L17.2018 0.666726L15.3285 0.666726V2.53213L17.2018 2.53213L17.2028 2.53213L19.0761 2.53213V2.53214L17.2018 2.53214V4.39754H19.0761V15.5899H17.2018V17.4553H19.0761V17.4553H17.2028H17.2018H15.3285V19.3207H0.333252V19.3207H2.2057H2.20677H4.07998V17.4553H2.20677H2.2057H0.333252V17.4552L2.20677 17.4552L2.20677 15.5898H0.333252V4.39761H2.20677V2.53221H0.333252V2.53214L2.2057 2.53214L2.20677 2.53214L4.07998 2.53214V0.666742L2.20677 0.666742L0.333252 0.666742V0.666672Z" fill="white"/>
<path d="M19.0761 0.666672L20.0548 0.461126L19.8879 -0.333328H19.0761V0.666672ZM0.333252 0.666672V-0.333328H-0.666748V0.666672H0.333252ZM19.0761 0.666726V1.66673L20.308 1.66673L20.0548 0.46118L19.0761 0.666726ZM17.2018 0.666726V-0.333274V0.666726ZM15.3285 0.666726V-0.333274L14.3285 -0.333274V0.666726H15.3285ZM15.3285 2.53213H14.3285V3.53213L15.3285 3.53213V2.53213ZM17.2018 2.53213L17.2021 1.53213H17.2018V2.53213ZM17.2028 2.53213L17.2025 3.53213H17.2028V2.53213ZM19.0761 2.53213H20.0761V1.53213L19.0761 1.53213V2.53213ZM19.0761 2.53214V3.53214H20.0761V2.53214H19.0761ZM17.2018 2.53214V1.53214L16.2018 1.53214V2.53214H17.2018ZM17.2018 4.39754H16.2018V5.39754H17.2018V4.39754ZM19.0761 4.39754H20.0761V3.39754H19.0761V4.39754ZM19.0761 15.5899V16.5899H20.0761V15.5899H19.0761ZM17.2018 15.5899V14.5899H16.2018V15.5899H17.2018ZM17.2018 17.4553H16.2018V18.4553H17.2018V17.4553ZM19.0761 17.4553H20.0761V16.4553H19.0761V17.4553ZM19.0761 17.4553V18.4553H20.0761V17.4553H19.0761ZM15.3285 17.4553V16.4553H14.3285V17.4553H15.3285ZM15.3285 19.3207V20.3207H16.3285V19.3207H15.3285ZM0.333252 19.3207H-0.666748V20.3207H0.333252V19.3207ZM0.333252 19.3207V18.3207H-0.666748V19.3207H0.333252ZM4.07998 19.3207V20.3207H5.07998V19.3207H4.07998ZM4.07998 17.4553H5.07998V16.4553H4.07998V17.4553ZM0.333252 17.4553H-0.666748V18.4553H0.333252V17.4553ZM0.333252 17.4552L0.333251 16.4552L-0.666748 16.4552V17.4552H0.333252ZM2.20677 17.4552L2.20677 18.4552L3.20677 18.4552V17.4552H2.20677ZM2.20677 15.5898H3.20677V14.5898H2.20677V15.5898ZM0.333252 15.5898H-0.666748V16.5898H0.333252V15.5898ZM0.333252 4.39761V3.39761H-0.666748V4.39761H0.333252ZM2.20677 4.39761V5.39761H3.20677V4.39761H2.20677ZM2.20677 2.53221H3.20677V1.53221H2.20677V2.53221ZM0.333252 2.53221H-0.666748V3.53221H0.333252V2.53221ZM0.333252 2.53214L0.333252 1.53214L-0.666748 1.53214V2.53214H0.333252ZM2.2057 2.53214L2.2057 3.53214H2.20581L2.2057 2.53214ZM2.20677 2.53214L2.20677 1.53214H2.20666L2.20677 2.53214ZM4.07998 2.53214V3.53214H5.07998V2.53214H4.07998ZM4.07998 0.666742H5.07998V-0.333258H4.07998V0.666742ZM2.20677 0.666742V-0.333258V0.666742ZM0.333252 0.666742H-0.666748V1.66674H0.333252L0.333252 0.666742ZM19.0761 -0.333328H0.333252V1.66667H19.0761V-0.333328ZM20.0548 0.46118L20.0548 0.461126L18.0975 0.872218L18.0975 0.872272L20.0548 0.46118ZM17.2018 1.66673L19.0761 1.66673V-0.333274L17.2018 -0.333274V1.66673ZM15.3285 1.66673L17.2018 1.66673V-0.333274L15.3285 -0.333274V1.66673ZM16.3285 2.53213V0.666726H14.3285V2.53213H16.3285ZM17.2018 1.53213L15.3285 1.53213V3.53213H17.2018V1.53213ZM17.203 1.53213L17.2021 1.53213L17.2016 3.53213L17.2025 3.53213L17.203 1.53213ZM19.0761 1.53213L17.2028 1.53213V3.53213L19.0761 3.53213V1.53213ZM20.0761 2.53214V2.53213H18.0761V2.53214H20.0761ZM17.2018 3.53214L19.0761 3.53214V1.53214L17.2018 1.53214V3.53214ZM18.2018 4.39754V2.53214H16.2018V4.39754H18.2018ZM19.0761 3.39754H17.2018V5.39754H19.0761V3.39754ZM20.0761 15.5899V4.39754H18.0761V15.5899H20.0761ZM17.2018 16.5899H19.0761V14.5899H17.2018V16.5899ZM18.2018 17.4553V15.5899H16.2018V17.4553H18.2018ZM19.0761 16.4553H17.2018V18.4553H19.0761V16.4553ZM20.0761 17.4553V17.4553H18.0761V17.4553H20.0761ZM17.2028 18.4553H19.0761V16.4553H17.2028V18.4553ZM17.2018 18.4553H17.2028V16.4553H17.2018V18.4553ZM15.3285 18.4553H17.2018V16.4553H15.3285V18.4553ZM16.3285 19.3207V17.4553H14.3285V19.3207H16.3285ZM0.333252 20.3207H15.3285V18.3207H0.333252V20.3207ZM-0.666748 19.3207V19.3207H1.33325V19.3207H-0.666748ZM2.2057 18.3207H0.333252V20.3207H2.2057V18.3207ZM2.20677 18.3207H2.2057V20.3207H2.20677V18.3207ZM4.07998 18.3207H2.20677V20.3207H4.07998V18.3207ZM3.07998 17.4553V19.3207H5.07998V17.4553H3.07998ZM2.20677 18.4553H4.07998V16.4553H2.20677V18.4553ZM2.2057 18.4553H2.20677V16.4553H2.2057V18.4553ZM0.333252 18.4553H2.2057V16.4553H0.333252V18.4553ZM-0.666748 17.4552V17.4553H1.33325V17.4552H-0.666748ZM2.20677 16.4552L0.333251 16.4552L0.333253 18.4552L2.20677 18.4552L2.20677 16.4552ZM1.20677 15.5898L1.20677 17.4552H3.20677L3.20677 15.5898H1.20677ZM0.333252 16.5898H2.20677V14.5898H0.333252V16.5898ZM-0.666748 4.39761V15.5898H1.33325V4.39761H-0.666748ZM2.20677 3.39761H0.333252V5.39761H2.20677V3.39761ZM1.20677 2.53221V4.39761H3.20677V2.53221H1.20677ZM0.333252 3.53221H2.20677V1.53221H0.333252V3.53221ZM-0.666748 2.53214V2.53221H1.33325V2.53214H-0.666748ZM2.2057 1.53214L0.333252 1.53214L0.333252 3.53214L2.2057 3.53214L2.2057 1.53214ZM2.20666 1.53214L2.20559 1.53214L2.20581 3.53214L2.20688 3.53214L2.20666 1.53214ZM4.07998 1.53214L2.20677 1.53214L2.20677 3.53214L4.07998 3.53214V1.53214ZM3.07998 0.666742V2.53214H5.07998V0.666742H3.07998ZM2.20677 1.66674L4.07998 1.66674V-0.333258L2.20677 -0.333258V1.66674ZM0.333252 1.66674H2.20677V-0.333258H0.333252L0.333252 1.66674ZM-0.666748 0.666672V0.666742H1.33325V0.666672H-0.666748Z" fill="white" fill-opacity="0.15" mask="url(#path-1-inside-1_87_15714)"/>
<path d="M12.1783 7.25044V7.89591H11.5329V8.54138H10.8874V9.18685H10.2419V9.83231H9.59648V10.4778H8.95101V11.1232H8.62828V11.446H7.98281V11.1232H7.66008V10.4778H7.01461V10.155H6.36914V11.1232H7.01461V11.7687H7.66008V12.4142H7.98281V12.7369H8.62828V12.4142H8.95101V11.7687H9.59648V11.1232H10.2419V10.4778H10.8874V9.83231H11.5329V9.18685H12.1783V8.54138H12.8238V7.25044H12.1783Z" fill="#66BE47"/>
</svg>
